<svg class="svg-plaha" xmlns="http://www.w3.org/2000/svg" width="200" height="200" viewBox="0 0 70.44 71.938">
<style type="text/css">
	.svg-plaha path{fill:#75ae1b;}
</style>
<path d="M1754.33,196.473l-1.09-1.491a4.7,4.7,0,0,1-.04-5.467l1.06-1.5a4.689,4.689,0,0,0-1.62-6.836l-1.62-.871a4.667,4.667,0,0,1-2.4-4.91l0.31-1.811a4.688,4.688,0,0,0-4.43-5.455l-1.84-.073a4.7,4.7,0,0,1-4.3-3.375l-0.52-1.773a4.671,4.671,0,0,0-6.35-2.989l-1.7.725a4.665,4.665,0,0,1-5.33-1.181l-1.22-1.37a4.678,4.678,0,0,0-7.02.058l-1.21,1.385a4.685,4.685,0,0,1-5.32,1.253l-1.71-.709a4.7,4.7,0,0,0-6.31,3.1l-0.48,1.784a4.65,4.65,0,0,1-4.25,3.434l-1.84.1a4.672,4.672,0,0,0-4.33,5.527l0.33,1.813a4.671,4.671,0,0,1-2.32,4.938l-1.61.9a4.676,4.676,0,0,0-1.5,6.855l1.09,1.487a4.7,4.7,0,0,1,.04,5.468l-1.06,1.506a4.688,4.688,0,0,0,1.62,6.835l1.62,0.871a4.665,4.665,0,0,1,2.4,4.905l-0.31,1.815a4.689,4.689,0,0,0,4.43,5.456l1.84,0.072a4.7,4.7,0,0,1,4.3,3.377l0.52,1.766a4.672,4.672,0,0,0,6.35,2.995l1.7-.724a4.665,4.665,0,0,1,5.33,1.181l1.22,1.369a4.676,4.676,0,0,0,7.02-.059l1.21-1.385a4.691,4.691,0,0,1,5.32-1.253l1.71,0.707a4.693,4.693,0,0,0,6.31-3.1l0.48-1.783a4.663,4.663,0,0,1,4.25-3.432l1.84-.1a4.686,4.686,0,0,0,4.34-5.527l-0.34-1.814a4.672,4.672,0,0,1,2.32-4.938l1.61-.9A4.67,4.67,0,0,0,1754.33,196.473Z" transform="translate(-1684.78 -156.531)"/>
</svg>